<svg width="75" height="59" viewBox="0 0 75 59" fill="none" xmlns="http://www.w3.org/2000/svg">
<path d="M74.3951 22.201L64.1062 6.94785C63.0546 5.38883 61.1365 4.70685 59.3326 5.2511L55.7937 6.31912C50.5993 2.23898 44.1378 0 37.5007 0C30.8635 0 24.4017 2.23914 19.2072 6.31943L15.6676 5.2511C13.8638 4.70653 11.9455 5.38883 10.8939 6.94785L0.604635 22.201C-0.222612 23.4274 -0.198945 25.0557 0.663024 26.2522C1.74765 27.758 4.0617 30.5877 7.37489 32.6229C7.62728 32.7779 7.88092 32.9234 8.13503 33.0638C8.97785 40.0333 12.2837 46.4605 17.5057 51.2397C22.9736 56.2441 30.0746 59 37.5005 59C44.9257 59 52.0262 56.2439 57.4938 51.2397C62.7158 46.4604 66.0215 40.0333 66.8643 33.0639C67.1186 32.9234 67.3723 32.7779 67.6247 32.6228C70.9378 30.5877 73.2521 27.7578 74.3366 26.2522C75.1992 25.0555 75.2226 23.4274 74.3951 22.201ZM52.2591 7.59117C52.0005 7.85747 51.8387 8.21291 51.8211 8.60064L51.6022 13.4053C51.5724 14.0587 51.9562 14.6606 52.5622 14.9106L55.7376 16.2209C56.2793 16.4446 56.9014 16.3455 57.3462 15.9649L59.9203 13.7646C60.7446 15.1851 61.1502 16.9791 61.5455 18.7271C61.6051 18.9907 61.6641 19.2518 61.7241 19.5103C60.7285 19.2664 59.8571 19.2626 59.1699 19.3459C57.8385 19.5072 56.5527 20.0659 55.4606 20.9449C51.6318 19.5081 48.7633 20.0878 46.9844 20.8733C45.9832 21.3154 45.2167 21.8636 44.6748 22.3353L42.7559 21.2274C44.0632 19.4089 44.8604 16.8946 44.8604 14.0763C44.8604 11.4603 44.1353 9.27037 42.7634 7.74334C41.4524 6.28402 39.5833 5.48045 37.5002 5.48045C35.4171 5.48045 33.548 6.28402 32.237 7.74334C30.8651 9.27037 30.14 11.4604 30.14 14.0763C30.14 16.8945 30.9372 19.4089 32.2445 21.2274L30.3254 22.3353C29.7836 21.8636 29.0171 21.3154 28.0159 20.8733C26.2367 20.0876 23.3683 19.5081 19.5398 20.9449C18.4474 20.0657 17.1617 19.5072 15.8305 19.3459C15.143 19.2626 14.2716 19.2664 13.2763 19.5103C13.3364 19.2518 13.3954 18.9906 13.4549 18.7269C13.8501 16.9789 14.2557 15.1851 15.0801 13.7646L17.6542 15.9649C18.0991 16.3454 18.7211 16.4443 19.2628 16.2207L22.438 14.9104C23.0442 14.6604 23.4278 14.0584 23.3981 13.4052L23.1792 8.60049C23.1616 8.21307 22.9999 7.85778 22.7416 7.59164C27.0818 4.68402 32.2294 3.1056 37.501 3.1056C42.772 3.1056 47.9192 4.68386 52.2591 7.59117ZM33.254 14.0763C33.254 10.6384 34.8413 8.58605 37.5002 8.58605C40.1591 8.58605 41.7462 10.6385 41.7462 14.0763C41.7462 17.8809 39.8018 21.0954 37.5002 21.0954C35.1986 21.0954 33.254 17.8809 33.254 14.0763ZM11.5074 34.4888C12.8883 34.8959 14.2906 35.1004 15.7101 35.1003C16.762 35.1003 17.8238 34.9855 18.893 34.7613C19.7816 37.1133 21.7459 42.0135 23.7593 45.0518C24.7971 46.6178 25.4888 48.3483 25.8157 50.1949C26.0242 51.3731 26.1772 52.4859 26.287 53.4132C23.8699 52.2851 21.6176 50.7879 19.6114 48.9518C15.3912 45.0894 12.5699 40.0256 11.5074 34.4888ZM22.9405 31.2714L25.5001 36.1445C25.6766 36.4805 25.9704 36.7405 26.3259 36.8754C26.4114 36.9077 28.4455 37.6732 30.86 38.0625C31.7925 38.213 32.6571 38.288 33.4529 38.288C35.1019 38.288 36.455 37.9656 37.5 37.3232C39.0491 38.2756 41.2749 38.5246 44.1401 38.0625C46.5546 37.6732 48.5887 36.9079 48.6742 36.8754C49.0297 36.7405 49.3235 36.4805 49.5 36.1445L52.0595 31.2717C52.6638 31.6462 53.3144 32.1945 53.5167 32.7931C52.9478 34.3499 50.7662 40.1352 48.6427 43.3394C47.3686 45.2621 46.5191 47.3869 46.1177 49.6551C45.7512 51.7256 45.5486 53.5755 45.4476 54.6807C45.0469 54.8064 44.6432 54.9228 44.2365 55.0293L45.5696 47.1258C45.8197 45.6434 45.2462 44.1364 44.073 43.1927L40.7215 40.4972C38.855 38.9959 36.145 38.9956 34.2787 40.4972L30.9271 43.1927C29.7539 44.1364 29.1802 45.6434 29.4305 47.1258L30.7637 55.0292C30.357 54.9227 29.9533 54.8062 29.5527 54.6806C29.4516 53.5753 29.2489 51.7256 28.8825 49.6553C28.4815 47.3874 27.6318 45.2625 26.3575 43.3396C24.2367 40.1389 22.0531 34.3502 21.4837 32.7929C21.686 32.1937 22.3374 31.6453 22.9405 31.2714ZM34.0288 55.6666L32.5011 46.6104C32.4375 46.2334 32.5833 45.8501 32.8818 45.6101L36.2334 42.9146C36.9671 42.3243 38.0322 42.3242 38.7665 42.9146L42.1179 45.6099C42.4164 45.85 42.5622 46.2334 42.4986 46.6104L40.971 55.6666C39.8272 55.8166 38.6684 55.8944 37.5004 55.8944C36.3321 55.8946 35.1729 55.8166 34.0288 55.6666ZM55.3885 48.9518C53.3822 50.7882 51.1298 52.2854 48.7127 53.4135C48.8224 52.4874 48.9755 51.3753 49.1843 50.1949C49.5112 48.348 50.203 46.6175 51.2406 45.0517C53.254 42.0133 55.2184 37.1131 56.1071 34.7611C57.1763 34.9853 58.2378 35.1001 59.29 35.1001C60.7094 35.1001 62.1115 34.8956 63.4924 34.4886C62.4299 40.0254 59.6086 45.0894 55.3885 48.9518ZM71.808 24.4404C69.7672 27.2735 64.2775 33.4825 56.4216 31.6513C55.8459 30.1091 54.492 29.0841 53.5084 28.5133L54.3178 26.9723C54.7168 26.2125 54.4227 25.2741 53.6609 24.8762C52.899 24.4782 51.9581 24.7717 51.5592 25.5311L47.0237 34.1664C44.7644 34.9259 40.7228 35.7763 39.0571 34.6302V29.5001C39.0571 28.6425 38.3598 27.9473 37.5 27.9473C36.6403 27.9473 35.943 28.6425 35.943 29.5001V34.6296C34.2811 35.77 30.2364 34.9218 27.9759 34.1652L23.4407 25.531C23.0417 24.7713 22.1009 24.478 21.3389 24.876C20.5772 25.274 20.2832 26.2123 20.6822 26.9721L21.4915 28.5131C20.5079 29.0839 19.1542 30.1089 18.5783 31.6512C10.723 33.4833 5.23289 27.2735 3.1921 24.4403C3.0856 24.2925 3.0842 24.089 3.18852 23.9344L13.4776 8.68139C13.7615 8.26058 14.2794 8.07689 14.7655 8.22362L20.118 9.83916L20.2375 12.4576L18.9551 12.9868L15.8484 10.3311C15.222 9.79583 14.2854 9.8404 13.7135 10.4329C11.6559 12.5639 10.9979 15.4752 10.4172 18.0437C10.0917 19.4825 9.78454 20.8415 9.28178 21.8443C8.95574 22.4946 9.12576 23.2834 9.69112 23.7428C10.2563 24.2019 11.0654 24.2083 11.638 23.7586C14.9464 21.1591 17.2461 22.9367 18.081 23.8216C18.5356 24.3032 19.2456 24.4449 19.8512 24.1746C22.4106 23.0317 24.6878 22.8569 26.6192 23.6549C28.001 24.2258 28.7356 25.1244 28.8002 25.2061C29.264 25.8633 30.1363 26.033 30.8347 25.6299L34.639 23.4334C35.5147 23.9283 36.4799 24.201 37.5 24.201C38.5202 24.201 39.4856 23.9283 40.3611 23.4334L44.1652 25.6299C44.8554 26.0283 45.7356 25.8425 46.2046 25.1994C46.2323 25.1616 49.0365 21.4452 55.1489 24.1746C55.7543 24.4448 56.4645 24.3032 56.9191 23.8216C57.7541 22.9366 60.0536 21.1592 63.3621 23.7588C63.9347 24.2086 64.7438 24.2021 65.309 23.7429C65.8743 23.2836 66.0444 22.4948 65.7183 21.8445C65.2156 20.8417 64.9084 19.4827 64.5829 18.0438C64.0023 15.4752 63.344 12.5639 61.2864 10.4329C60.714 9.8404 59.778 9.79552 59.1516 10.3311L56.045 12.9867L54.7625 12.4575L54.8819 9.839L60.2346 8.22347C60.7212 8.07689 61.2388 8.26058 61.5224 8.68124L71.8114 23.9344C71.9159 24.0892 71.9143 24.2925 71.808 24.4404Z" fill="#1C1C1C"/>
</svg>
