<svg width="58" height="60" viewBox="0 0 58 60" fill="none" xmlns="http://www.w3.org/2000/svg">
<path d="M56.9478 29.2321L55.9404 28.2246C52.0519 24.3364 45.9068 24.0523 41.6852 27.3666C41.485 26.1712 41.1194 24.9911 40.5797 23.8614C40.2601 23.1924 39.4587 22.9091 38.7897 23.2288C38.1207 23.5483 37.8374 24.3499 38.1571 25.0188C39.8636 28.5909 39.401 32.7913 37.0687 35.8949C36.8716 34.2131 36.2002 32.7368 35.0773 31.6138C34.034 30.5705 32.7462 29.8784 31.3092 29.5602L33.6372 1.45331C33.6682 1.07927 33.5412 0.709268 33.2869 0.433106C33.0326 0.157078 32.6744 0 32.299 0H1.34257C0.967332 0 0.609006 0.157078 0.354862 0.43324C0.100717 0.709402 -0.026422 1.07941 0.00459089 1.45344L4.68471 57.9505C4.74244 58.6466 5.32417 59.1822 6.02269 59.1822H29.9301C29.9657 59.1824 30.0013 59.1835 30.0368 59.1835C30.9792 59.1835 31.9294 59.0894 32.8736 58.8976C36.4235 58.1759 39.1036 56.9298 40.8395 55.1939C43.1537 52.8797 44.7218 50.0718 45.255 47.2869C45.8245 44.3129 45.1649 41.7019 43.3979 39.9349C42.2252 38.7623 40.6685 38.0795 38.8934 37.9178C40.1285 36.4028 40.9926 34.6568 41.4592 32.8159C43.4439 34.4621 45.8847 35.287 48.3265 35.287C51.0837 35.287 53.8409 34.2375 55.94 32.1384L56.9474 31.131C57.1991 30.8793 57.3406 30.5377 57.3406 30.1817C57.341 29.8254 57.1995 29.484 56.9478 29.2321ZM34.1946 38.9188L21.004 52.1094C18.9059 49.4611 18.0645 46.0244 18.7459 42.6731C19.2699 40.0964 20.8113 37.0069 22.3314 35.4869C24.2168 33.6015 26.3972 32.4033 28.4709 32.1131C28.7973 32.0673 29.1175 32.0447 29.4301 32.0447C30.9098 32.0447 32.2171 32.5511 33.1784 33.5125C34.3807 34.7146 34.743 36.6722 34.1946 38.9188ZM30.8408 2.68509L30.2594 9.7042H28.1346L28.4685 5.36375C28.5253 4.6244 27.9721 3.97904 27.2328 3.92212C26.4944 3.86519 25.8481 4.41846 25.7912 5.1578L25.4414 9.7042H3.38244L2.80098 2.68509H30.8408ZM7.25864 56.4971L3.6049 12.3893H25.235L24.8292 17.6636C24.7724 18.403 25.3256 19.0483 26.0649 19.1053C26.1 19.1079 26.1349 19.1093 26.1694 19.1093C26.864 19.1093 27.4523 18.5739 27.5065 17.8697L27.9281 12.3894H30.0371L28.6286 29.3944C28.4532 29.4096 28.2765 29.429 28.0987 29.4539C25.4507 29.8246 22.7283 31.2929 20.4328 33.5883C18.5264 35.4948 16.7507 39.0107 16.1148 42.1383C15.1637 46.8161 16.6155 51.6286 19.9985 55.0121C19.9987 55.0124 19.999 55.0128 19.9994 55.013C19.9997 55.0133 20.0001 55.0136 20.0004 55.0138C20.5461 55.5594 21.1296 56.0539 21.7431 56.4971H7.25864ZM38.9412 53.2951C37.5845 54.6517 35.3631 55.6514 32.3389 56.2663C28.9878 56.9474 25.551 56.1061 22.9027 54.0081L36.0933 40.8176C38.3398 40.2693 40.2974 40.6315 41.4995 41.8336C43.9125 44.2465 42.741 49.4953 38.9412 53.2951ZM54.0416 30.2397C50.8904 33.3908 45.763 33.3909 42.6119 30.2397L42.5538 30.1814L42.6119 30.1233C45.7632 26.972 50.8906 26.972 54.0417 30.1233L54.0999 30.1814L54.0416 30.2397Z" fill="#1C1C1C"/>
<path d="M32.2227 45.3975L30.6115 47.0087C30.0872 47.533 30.0872 48.3831 30.6115 48.9073C30.8737 49.1695 31.2172 49.3006 31.5608 49.3006C31.9043 49.3006 32.248 49.1694 32.5101 48.9073L34.1213 47.2962C34.6455 46.7719 34.6455 45.9218 34.1213 45.3975C33.597 44.8733 32.7469 44.8731 32.2227 45.3975Z" fill="#1C1C1C"/>
<path d="M27.7916 40.9666L26.1804 42.5778C25.6561 43.1021 25.656 43.9522 26.1804 44.4765C26.4426 44.7387 26.7861 44.8697 27.1297 44.8697C27.4732 44.8697 27.8169 44.7385 28.079 44.4765L29.6902 42.8653C30.2144 42.341 30.2146 41.4909 29.6902 40.9666C29.1658 40.4424 28.3159 40.4425 27.7916 40.9666Z" fill="#1C1C1C"/>
<path d="M25.416 27.5452C25.451 27.5479 25.4858 27.5492 25.5204 27.5492C26.215 27.5492 26.8033 27.0138 26.8576 26.3096L27.1039 23.1062C27.1607 22.3668 26.6076 21.7215 25.8683 21.6646C25.1299 21.6086 24.4836 22.1609 24.4266 22.9002L24.1803 26.1037C24.1235 26.8429 24.6766 27.4884 25.416 27.5452Z" fill="#1C1C1C"/>
</svg>
