<svg width="40" height="59" viewBox="0 0 40 59" fill="none" xmlns="http://www.w3.org/2000/svg">
<path d="M36.2577 35.7766C36.2498 35.7635 36.2417 35.7505 36.2334 35.7376C34.055 32.3729 32.9037 28.4744 32.9037 24.4636C32.9037 21.6672 33.4571 18.9435 34.5488 16.3679C36.5704 11.5959 37.5954 6.54849 37.5954 1.36546C37.5954 0.611318 36.984 0 36.23 0C35.4759 0 34.8645 0.611318 34.8645 1.36546C34.8645 5.07187 34.298 8.70319 33.1816 12.201C24.629 9.3825 15.3713 9.38237 6.81871 12.2004C5.70217 8.70264 5.13564 5.0716 5.13564 1.36546C5.13564 0.611318 4.52419 0 3.77018 0C3.01617 0 2.40472 0.611318 2.40472 1.36546C2.40472 6.54821 3.42977 11.5958 5.45147 16.3682C6.54302 18.9435 7.09645 21.6673 7.09645 24.4638C7.09645 28.4744 5.94495 32.3729 3.76677 35.7378C3.75844 35.7507 3.75038 35.7635 3.7426 35.7766C1.29378 39.5763 0 43.9734 0 48.4959V49.7235V57.2559C0 58.01 0.611454 58.6214 1.36546 58.6214C2.11947 58.6214 2.73093 58.01 2.73093 57.2559V50.332C4.71986 48.7777 8.33055 48.8415 11.5861 50.5515C13.3653 51.4856 14.8807 52.8184 15.8914 54.33V57.2559C15.8914 58.01 16.5028 58.6214 17.2569 58.6214C18.0109 58.6214 18.6223 58.01 18.6223 57.2559V55.3466C19.5394 55.3685 20.4594 55.3685 21.3765 55.3466V57.2559C21.3765 58.01 21.9879 58.6214 22.7419 58.6214C23.4959 58.6214 24.1074 58.01 24.1074 57.2559V54.3301C25.1175 52.8191 26.6335 51.4864 28.4139 50.5515C31.6697 48.8416 35.2801 48.7779 37.2691 50.3322V57.256C37.2691 58.0102 37.8805 58.6215 38.6345 58.6215C39.3885 58.6215 40 58.0102 40 57.256V49.7233V48.4958C40 43.9734 38.706 39.576 36.2577 35.7766ZM9.82737 24.4636C9.82737 21.299 9.20103 18.2166 7.96597 15.3026C7.89101 15.1255 7.81987 14.9473 7.74791 14.7694C15.7002 12.1668 24.2998 12.1668 32.2521 14.7699C32.1801 14.9476 32.1091 15.1255 32.0343 15.3023C30.7991 18.2166 30.1728 21.2989 30.1728 24.4635C30.1728 28.9871 31.4674 33.385 33.9167 37.1843C33.9169 37.1846 33.9171 37.185 33.9173 37.1852C29.4604 38.8717 24.7863 39.7288 19.9998 39.7288C15.2134 39.7288 10.5396 38.8719 6.08273 37.1854C6.08286 37.1851 6.08314 37.1847 6.08327 37.1844C8.53305 33.385 9.82737 28.9874 9.82737 24.4636ZM27.1443 48.1334C25.0502 49.233 23.2428 50.8008 21.985 52.5961C20.6646 52.6443 19.3344 52.6443 18.014 52.5961C16.756 50.8003 14.9487 49.2323 12.8561 48.1335C9.37786 46.3067 5.59717 46.0127 2.77476 47.1848C2.9408 44.5447 3.60755 41.9747 4.73816 39.5964C9.61777 41.4963 14.7459 42.4599 19.9999 42.4599C25.2542 42.4599 30.3824 41.4961 35.2621 39.5962C36.3927 41.9746 37.0595 44.5445 37.2255 47.1848C34.403 46.0127 30.6224 46.3065 27.1443 48.1334Z" fill="#1C1C1C"/>
<path d="M19.9988 31.9618C20.7341 31.9618 21.3301 31.3658 21.3301 30.6305C21.3301 29.8952 20.7341 29.2992 19.9988 29.2992C19.2635 29.2992 18.6675 29.8952 18.6675 30.6305C18.6675 31.3658 19.2635 31.9618 19.9988 31.9618Z" fill="#1C1C1C"/>
</svg>
