<svg width="58" height="52" viewBox="0 0 58 52" fill="none" xmlns="http://www.w3.org/2000/svg">
<path d="M52.8859 4.982C49.6732 1.76939 45.4018 0 40.8584 0C36.5496 0 32.4857 1.59117 29.3371 4.49574C22.6733 -1.64549 12.2541 -1.4834 5.78846 4.98214C-0.84355 11.6142 -0.84355 22.4051 5.78846 29.0372L28.3372 51.5857C28.6025 51.8509 28.9622 52 29.3373 52C29.7124 52 30.072 51.8509 30.3374 51.5857L52.8859 29.0372C59.518 22.4051 59.518 11.6142 52.8859 4.982ZM50.8857 27.037L29.3373 48.5854L7.78882 27.0368C5.11027 24.3584 3.63536 20.7974 3.63536 17.0096C3.6355 13.2217 5.11055 9.66062 7.78896 6.98221C10.5535 4.21767 14.1849 2.8354 17.8163 2.8354C21.2246 2.8354 24.6328 4.05318 27.3245 6.4886L23.2282 10.5849C22.6758 11.1372 22.6758 12.0328 23.2282 12.5851C23.5044 12.8614 23.8663 12.9994 24.2283 12.9994C24.5902 12.9994 24.9521 12.8614 25.2284 12.5851L30.8313 6.98207C33.5097 4.30367 37.0707 2.82861 40.8585 2.82861C44.6464 2.82861 48.2075 4.30367 50.8859 6.98207C56.4148 12.5114 56.4148 21.5079 50.8857 27.037Z" fill="#1C1C1C"/>
<path d="M45.028 5.13322C43.656 4.62956 42.2132 4.37427 40.7396 4.37427C39.9586 4.37427 39.3252 5.00748 39.3252 5.78864C39.3252 6.56981 39.9586 7.20302 40.7396 7.20302C41.8796 7.20302 42.9944 7.40004 44.0535 7.78872C44.2143 7.84769 44.3788 7.8757 44.5406 7.8757C45.1168 7.8757 45.6584 7.52069 45.8685 6.94829C46.1377 6.21494 45.7613 5.40238 45.028 5.13322Z" fill="#1C1C1C"/>
<path d="M50.2392 8.77933C49.7344 8.18332 48.8416 8.10949 48.2458 8.61442C47.6497 9.11935 47.5759 10.0118 48.0808 10.6078C49.5484 12.34 50.3566 14.5465 50.3566 16.8208C50.3566 17.6019 50.9899 18.2352 51.771 18.2352C52.552 18.2352 53.1853 17.6019 53.1853 16.8208C53.1853 13.8777 52.139 11.022 50.2392 8.77933Z" fill="#1C1C1C"/>
<path d="M27.0235 39.745C26.471 39.1927 25.5757 39.1927 25.0231 39.745C24.4708 40.2973 24.4708 41.1929 25.0231 41.7453L27.003 43.7252C27.2792 44.0014 27.6411 44.1395 28.0031 44.1395C28.365 44.1395 28.727 44.0014 29.0032 43.7252C29.5555 43.1729 29.5555 42.2773 29.0032 41.7248L27.0235 39.745Z" fill="#1C1C1C"/>
<path d="M16.3096 29.0308C15.7572 28.4784 14.8619 28.4784 14.3093 29.0308C13.7569 29.5831 13.7569 30.4786 14.3093 31.0311L21.7702 38.4921C22.0465 38.7683 22.4084 38.9064 22.7703 38.9064C23.1323 38.9064 23.4942 38.7683 23.7704 38.4921C24.3228 37.9398 24.3228 37.0442 23.7704 36.4917L16.3096 29.0308Z" fill="#1C1C1C"/>
</svg>
