<svg width="59" height="55" viewBox="0 0 59 55" fill="none" xmlns="http://www.w3.org/2000/svg">
<path d="M55.3994 4.48351C50.5987 -0.317257 42.7872 -0.317257 37.9863 4.48351C35.6606 6.80917 34.3799 9.90124 34.3799 13.1901C34.3799 16.479 35.6606 19.5711 37.9863 21.8966C39.18 23.0904 40.5759 24.008 42.0965 24.6192C41.5621 25.363 41.0162 25.9047 40.6047 26.208C38.8285 27.5178 37.2547 29.0573 35.9326 30.7608C35.7788 29.8401 35.5191 28.9257 35.1504 28.0324C33.6006 24.2777 30.4505 21.5829 26.5074 20.639L25.0747 20.296C25.047 20.1778 25.0193 20.0597 24.9916 19.9399C23.3906 13.0092 17.575 7.77056 10.5201 6.9042C9.84592 6.82148 9.23106 7.30119 9.14834 7.97601C9.06549 8.6507 9.54532 9.26495 10.2201 9.34779C16.2517 10.0886 21.224 14.5678 22.5929 20.4941C23.2217 23.216 23.8565 25.5493 24.4798 27.4292C24.6511 27.946 25.1319 28.2732 25.6481 28.2732C25.7765 28.2732 25.9071 28.2528 26.0356 28.2103C26.6809 27.9963 27.0306 27.2997 26.8166 26.6544C26.4624 25.5858 26.1029 24.3583 25.7419 22.9871L25.9343 23.0332C29.1001 23.7911 31.6298 25.9556 32.8747 28.9717C34.0923 31.9216 33.8383 35.1567 32.1782 37.8469C32.1274 37.9292 32.0756 38.0108 32.0225 38.0918C31.6499 38.6605 31.8087 39.4235 32.3774 39.7961C32.5854 39.9325 32.8194 39.9976 33.051 39.9976C33.4522 39.9976 33.8455 39.8018 34.0817 39.4412C34.1468 39.3419 34.2104 39.2417 34.2732 39.1403C34.9486 38.0458 35.4372 36.8796 35.7386 35.6777C37.1664 32.7787 39.3532 30.19 42.0658 28.1896C42.9502 27.5377 43.8543 26.5017 44.5828 25.324C45.273 25.4426 45.9782 25.5031 46.6928 25.5031C47.5239 25.5031 48.3424 25.421 49.1392 25.2612C48.1142 28.9538 47.2549 32.1853 46.5802 34.8869C45.0047 41.1936 40.837 49.2704 37.1437 51.2418C36.3758 51.6517 35.7079 51.7532 35.1036 51.5512C17.328 43.4028 13.748 34.9676 13.0338 31.717C12.8985 31.1013 12.3234 30.6948 11.7108 30.756C8.73165 30.0038 6.16029 28.1627 4.457 25.5579C2.69217 22.859 2.06991 19.624 2.70521 16.449C2.83853 15.7823 2.40633 15.1338 1.73964 15.0004C1.0732 14.8673 0.424356 15.2993 0.291043 15.966C-0.471541 19.7779 0.276148 23.6628 2.39649 26.9053C4.38844 29.9513 7.37328 32.1276 10.8397 33.0726C11.4275 35.1102 12.7597 37.9978 15.7451 41.3223C19.8696 45.9152 26.0555 50.118 34.1314 53.814C34.1627 53.8284 34.1946 53.8413 34.2269 53.8529C34.7166 54.0292 35.218 54.117 35.7292 54.117C36.5642 54.117 37.4252 53.8822 38.303 53.4137C41.0204 51.9632 43.3355 48.5302 44.7991 45.9055C46.6021 42.6724 48.1218 38.8737 48.9687 35.4835C49.7334 32.4218 50.738 28.6703 51.9553 24.329C53.2182 23.7314 54.3822 22.914 55.3994 21.8968C60.2002 17.0959 60.2002 9.2844 55.3994 4.48351ZM46.6929 23.0411C44.0616 23.0411 41.5879 22.0164 39.7273 20.1558C37.8666 18.2952 36.842 15.8214 36.842 13.1901C36.842 10.5588 37.8666 8.08495 39.7273 6.22447C41.6477 4.30404 44.1703 3.34376 46.6929 3.34376C49.2155 3.34376 51.7382 4.30404 53.6586 6.22434C57.4995 10.0653 57.4996 16.3149 53.6586 20.1558C51.798 22.0164 49.3241 23.0411 46.6929 23.0411Z" fill="#1C1C1C"/>
<path d="M44.4119 10.9093C43.1544 12.1669 43.1544 14.2132 44.4119 15.4711C45.0407 16.0998 45.8667 16.4142 46.6926 16.4142C47.5186 16.4142 48.3446 16.0998 48.9735 15.4711C50.2311 14.2134 50.2311 12.167 48.9735 10.9095C47.7161 9.65178 45.6697 9.65178 44.4119 10.9093ZM47.2327 13.7301C46.9349 14.0277 46.4505 14.0279 46.1529 13.7301C45.8551 13.4323 45.8551 12.9479 46.1529 12.6502C46.3017 12.5013 46.4973 12.4269 46.6929 12.4269C46.8884 12.4269 47.084 12.5012 47.2328 12.6502C47.5303 12.9479 47.5303 13.4323 47.2327 13.7301Z" fill="#1C1C1C"/>
<path d="M52.9848 6.89731C49.5149 3.42746 43.8691 3.42746 40.3993 6.89731C36.9294 10.3672 36.9294 16.013 40.3993 19.4828C42.1342 21.2178 44.4131 22.0852 46.6921 22.0852C48.9711 22.0852 51.2499 21.2178 52.9849 19.4828C56.4546 16.013 56.4546 10.3672 52.9848 6.89731ZM51.2439 17.742C48.734 20.2521 44.6502 20.2521 42.1402 17.742C39.6303 15.2321 39.6303 11.1482 42.1402 8.63826C43.3952 7.38329 45.0436 6.75587 46.6921 6.75587C48.3406 6.75587 49.989 7.38329 51.2439 8.63826C53.7539 11.1481 53.7539 15.2321 51.2439 17.742Z" fill="#1C1C1C"/>
</svg>
