<svg width="38" height="53" viewBox="0 0 38 53" fill="none" xmlns="http://www.w3.org/2000/svg">
<path d="M37.6423 13.618C37.6423 10.948 35.4701 8.77582 32.8003 8.77582H31.7238V3.95798C31.7237 1.77563 29.948 0 27.7656 0H10.2343C8.05184 0 6.27633 1.77563 6.27633 3.95798V8.7757H5.19946C2.52952 8.7757 0.357422 10.9479 0.357422 13.6179V48.1578C0.357422 50.8278 2.52964 53 5.19946 53H32.8003C35.4702 53 37.6423 50.8278 37.6423 48.1578V13.618ZM2.74213 20.6332H35.2575V41.1415H2.74213V20.6332ZM8.66116 3.95798C8.66116 3.0905 9.36695 2.38483 10.2343 2.38483H27.7656C28.6329 2.38483 29.3387 3.0905 29.3387 3.95798V8.7757H8.66104V3.95798H8.66116ZM5.19934 11.1606H32.8002C34.1551 11.1606 35.2574 12.263 35.2574 13.618V18.2485H2.74213V13.618C2.74213 12.2629 3.8444 11.1606 5.19934 11.1606ZM32.8002 50.6153H5.19934C3.8444 50.6153 2.74213 49.5129 2.74213 48.158V43.5264H35.2575V48.158C35.2575 49.5129 34.1551 50.6153 32.8002 50.6153Z" fill="#1C1C1C"/>
<path d="M32.5269 17.2295C33.1853 17.2295 33.7193 16.6956 33.7193 16.037V13.7119C33.7193 13.0534 33.1853 12.5195 32.5269 12.5195C31.8684 12.5195 31.3345 13.0534 31.3345 13.7119V16.037C31.3345 16.6956 31.8684 17.2295 32.5269 17.2295Z" fill="#1C1C1C"/>
<path d="M32.5269 44.6843C31.8684 44.6843 31.3345 45.2182 31.3345 45.8767V48.0566C31.3345 48.7152 31.8684 49.249 32.5269 49.249C33.1853 49.249 33.7193 48.7152 33.7193 48.0566V45.8767C33.7193 45.2182 33.1855 44.6843 32.5269 44.6843Z" fill="#1C1C1C"/>
<path d="M23.8574 29.8949C23.6728 29.4493 23.2381 29.1588 22.7557 29.1588H18.4793L22.8834 24.7548C23.3491 24.2891 23.3491 23.5341 22.8834 23.0683C22.4177 22.6027 21.6629 22.6027 21.197 23.0683L14.7574 29.508C14.4165 29.849 14.3144 30.362 14.4989 30.8075C14.6834 31.2531 15.1182 31.5436 15.6005 31.5436H19.877L14.3995 37.0209C13.9339 37.4866 13.9339 38.2416 14.3995 38.7073C14.6324 38.9402 14.9375 39.0566 15.2427 39.0566C15.5478 39.0566 15.853 38.9401 16.0858 38.7073L23.5988 31.1944C23.9398 30.8534 24.0419 30.3405 23.8574 29.8949Z" fill="#1C1C1C"/>
</svg>
