<svg width="143" height="143" viewBox="0 0 143 143" fill="none" xmlns="http://www.w3.org/2000/svg">
<path d="M71.5 143C110.988 143 143 110.988 143 71.5C143 32.0116 110.988 0 71.5 0C32.0116 0 0 32.0116 0 71.5C0 110.988 32.0116 143 71.5 143Z" fill="#F1F1F1"/>
<path d="M98.0333 79.6562L80.6898 106.463C78.3737 110.041 74.4552 112.174 70.1967 112.174C46.3537 112.174 35.575 96.7187 31.2235 87.4092L31.117 87.1814L30.942 87.0008C30.9047 86.9623 30.8873 86.9323 30.8706 86.8734C30.847 86.7904 30.8267 86.6498 30.8267 86.3848V46.6917C30.8267 46.149 31.2646 45.711 31.8074 45.711C42.9174 45.711 52.0269 54.4578 52.6052 65.4277L52.6581 66.4322L53.6074 66.7645C60.2934 69.1053 65.2577 74.6594 66.9161 81.401L67.5517 83.985L69.4333 82.1034L75.7668 75.7699C80.728 78.9887 86.0316 80.4424 91.3465 80.4424C93.6319 80.4424 95.8726 80.1715 98.0333 79.6562ZM90.366 51.6537C90.366 51.1129 90.8065 50.6727 91.3468 50.6727C91.8871 50.6727 92.3275 51.1129 92.3275 51.6537C92.3275 52.1941 91.8872 52.6344 91.3468 52.6344C90.8065 52.6344 90.366 52.194 90.366 51.6537ZM70.5195 51.6534C70.5195 40.1699 79.8632 30.8262 91.3468 30.8262C102.83 30.8262 112.174 40.1699 112.174 51.6534C112.174 63.1528 102.89 72.4807 91.3468 72.4807C80.188 72.4807 70.5195 63.3987 70.5195 51.6534ZM82.4043 51.6534C82.4043 56.5859 86.4143 60.5959 91.3468 60.5959C96.2792 60.5959 100.289 56.5859 100.289 51.6534C100.289 46.721 96.2792 42.711 91.3468 42.711C86.4143 42.711 82.4043 46.721 82.4043 51.6534Z" stroke="#1C1C1C" stroke-width="3"/>
</svg>
